# xmcd CD database file
#
# Track frame offsets:
#	150
#	17593
#	33155
#	48462
#	68539
#	85843
#	100371
#	119637
#	147153
#	161945
#	187003
#	207747
#	221609
#	244361
#
# Disc length: 3572 seconds
#
# Revision: 0
# Processed by: cddbd v1.5.2PL0 Copyright (c) Steve Scherf et al.
# Submitted via: CDex 1.51
#
DISCID=d20df20e
DTITLE=Julie Dunn with the John Horler trio - what's it all about
DYEAR=2007
DGENRE=Jazz
TTITLE0=softly as in a morning sunrise
TTITLE1=all or nothing at all
TTITLE2=charade
TTITLE3=a l'enterrement de sidney bechet
TTITLE4=alfie's theme
TTITLE5=close enough for love
TTITLE6=waiting room blues
TTITLE7=you go to my head
TTITLE8=it's all right with me
TTITLE9=skylark
TTITLE10=estate
TTITLE11=vous m'eblouissez
TTITLE12=so in love
TTITLE13=alfie
EXTD=YEAR: 2007
EXTT0=
EXTT1=
EXTT2=
EXTT3=
EXTT4=
EXTT5=
EXTT6=
EXTT7=
EXTT8=
EXTT9=
EXTT10=
EXTT11=
EXTT12=
EXTT13=
PLAYORDER=
